<svg width="173" height="51" viewBox="0 0 173 51" fill="none" xmlns="http://www.w3.org/2000/svg">
<path fill-rule="evenodd" clip-rule="evenodd" d="M129.561 1.45226e-10C132.16 1.45226e-10 134.424 0.550531 136.353 1.65159C138.283 2.75265 139.783 4.37527 140.855 6.51945C141.927 8.66362 142.463 11.2569 142.463 14.2993V30.2638C142.463 30.6404 142.156 30.9456 141.777 30.9456H136.637C136.259 30.9456 135.952 30.6404 135.952 30.2638V23.9848C135.952 23.7965 135.798 23.6439 135.609 23.6439H123.433C123.243 23.6439 123.09 23.7965 123.09 23.9848V30.2638C123.09 30.6404 122.783 30.9456 122.404 30.9456H117.345C116.966 30.9456 116.659 30.6404 116.659 30.2638V14.2993C116.659 11.2569 117.195 8.66362 118.267 6.51945C119.338 4.37527 120.839 2.75265 122.768 1.65159C124.697 0.550531 126.962 1.45226e-10 129.561 1.45226e-10ZM135.935 12.0316C135.935 15.6096 133.226 18.5101 129.884 18.5101C126.542 18.5101 123.833 15.6096 123.833 12.0316C123.833 8.45357 126.542 5.55303 129.884 5.55303C133.226 5.55303 135.935 8.45357 135.935 12.0316Z" fill="white"/>
<path d="M162.354 31.4672C159.487 31.4672 156.888 30.8008 154.557 29.4679C152.252 28.1061 150.43 26.2372 149.091 23.8612C147.778 21.4562 147.121 18.747 147.121 15.7336C147.121 12.7202 147.778 10.0255 149.091 7.64949C150.43 5.24453 152.252 3.37563 154.557 2.04276C156.888 0.68092 159.501 1.45226e-10 162.395 1.45226e-10C164.833 1.45226e-10 167.03 0.463605 168.986 1.39082C170.177 1.94746 171.251 2.65031 172.21 3.49936C173.319 4.48194 173.188 6.17062 172.139 7.21721C170.888 8.46619 168.847 8.2809 167.357 7.32456C165.98 6.44012 164.433 5.99789 162.716 5.99789C160.974 5.99789 159.42 6.41803 158.054 7.25832C156.687 8.06963 155.615 9.21415 154.838 10.6919C154.088 12.1696 153.713 13.8502 153.713 15.7336C153.713 17.617 154.088 19.2976 154.838 20.7753C155.615 22.253 156.687 23.4121 158.054 24.2523C159.42 25.0637 160.974 25.4693 162.716 25.4693C164.432 25.4693 165.979 25.022 167.356 24.1273C168.846 23.1591 170.897 22.9668 172.153 24.2209C173.196 25.2613 173.334 26.938 172.24 27.9248C171.274 28.7967 170.189 29.5138 168.986 30.0764C167.003 31.0036 164.793 31.4672 162.354 31.4672Z" fill="white"/>
<path d="M11.6714 30.6155C9.30172 30.6155 6.98514 30.3342 4.7216 29.7715C3.64949 29.4883 2.68052 29.1736 1.8147 28.8273C0.3133 28.2268 -0.185039 26.4752 0.496445 25.0156C1.32875 23.2331 3.56872 22.5867 5.43009 23.2476C5.83291 23.3906 6.25105 23.5255 6.68451 23.6523C8.48826 24.1446 10.2567 24.3908 11.9897 24.3908C15.4911 24.3908 17.2418 23.5292 17.2418 21.8059C17.2418 20.9971 16.7643 20.4168 15.8094 20.0651C14.8545 19.7134 13.3867 19.4145 11.4061 19.1683C9.07183 18.8166 7.14429 18.4122 5.62348 17.955C4.10266 17.4978 2.77637 16.689 1.6446 15.5284C0.548201 14.3679 0 12.715 0 10.5697C0 8.77613 0.512833 7.19356 1.5385 5.822C2.59953 4.41528 4.12035 3.32506 6.10094 2.55136C8.1169 1.77767 10.4865 1.39082 13.2099 1.39082C15.2258 1.39082 17.2241 1.61941 19.2047 2.07659C20.0217 2.24762 20.7806 2.44753 21.4814 2.67632C23.0828 3.19911 23.6466 5.02687 22.9316 6.54456C22.1227 8.26152 20.0171 8.89568 18.1941 8.33963C16.6116 7.85693 14.9502 7.61558 13.2099 7.61558C11.4415 7.61558 10.1152 7.86175 9.23099 8.35411C8.34679 8.84646 7.9047 9.47949 7.9047 10.2532C7.9047 11.1324 8.38216 11.7478 9.33709 12.0995C10.292 12.4512 11.8128 12.7853 13.8995 13.1018C16.2338 13.4887 18.1437 13.9107 19.6291 14.3679C21.1146 14.7899 22.4055 15.5812 23.5019 16.7417C24.5983 17.9023 25.1465 19.52 25.1465 21.5949C25.1465 23.3533 24.616 24.9183 23.5549 26.2899C22.4939 27.6614 20.9377 28.7341 18.8864 29.5078C16.8704 30.2463 14.4654 30.6155 11.6714 30.6155Z" fill="white"/>
<path d="M173 36.323C172.996 35.8671 172.784 35.558 172.366 35.3959C171.947 35.2337 171.573 35.3199 171.242 35.6545C164.006 42.5995 155.134 46.1182 144.626 46.2107C134.118 46.3032 125.185 42.9411 117.827 36.1245C117.491 35.8372 117.115 35.7784 116.699 35.9478C116.284 36.1173 116.078 36.4093 116.082 36.8238C116.096 38.4404 116.671 39.7826 117.806 40.8504C121.381 44.1767 125.469 46.7109 130.072 48.4529C134.633 50.1953 139.498 51.0438 144.669 50.9983C149.84 50.9528 154.71 50.0187 159.281 48.1959C163.811 46.3735 167.832 43.768 171.347 40.3793C172.463 39.2917 173.014 37.9396 173 36.323Z" fill="#9849FF"/>
<path d="M44.9314 30.985C40.5077 30.985 36.988 29.761 34.3722 27.313C31.7949 24.865 30.4293 21.3077 30.2754 16.6412C30.2754 16.3352 30.2754 15.9336 30.2754 15.4364C30.2754 14.9009 30.2754 14.4801 30.2754 14.1741C30.4293 11.2289 31.1025 8.70437 32.295 6.60062C33.4874 4.45862 35.1608 2.833 37.3149 1.72375C39.4691 0.576245 41.9887 0.0024945 44.8737 0.0024945C48.105 0.0024945 50.7976 0.671869 52.9518 2.01062C55.1444 3.31112 56.7793 5.10887 57.8564 7.40387C58.9719 9.66062 59.5297 12.2616 59.5297 15.2069V16.5265C59.5297 16.909 59.3758 17.2341 59.0681 17.5019C58.7988 17.7696 58.4718 17.9035 58.0872 17.9035H39.219C39.219 17.9417 39.219 18.0182 39.219 18.133C39.219 18.2095 39.219 18.286 39.219 18.3625C39.2575 19.5865 39.4883 20.7149 39.9115 21.7476C40.3731 22.7421 41.0078 23.5454 41.8156 24.1574C42.6619 24.7694 43.662 25.0754 44.816 25.0754C45.7777 25.0754 46.5663 24.9415 47.1817 24.6737C47.7972 24.406 48.2973 24.0809 48.682 23.6984C49.1051 23.3159 49.4128 22.9907 49.6052 22.723C49.9514 22.3405 50.2206 22.111 50.413 22.0345C50.6438 21.9197 50.99 21.8624 51.4516 21.8624H57.4525C57.8371 21.8624 58.1449 21.9771 58.3757 22.2066C58.6449 22.3979 58.7603 22.6847 58.7219 23.0672C58.6834 23.6792 58.3564 24.4442 57.741 25.3622C57.164 26.242 56.2984 27.1217 55.1444 28.0015C53.9904 28.843 52.5479 29.5506 50.8169 30.1244C49.1243 30.6981 47.1625 30.985 44.9314 30.985ZM39.219 12.6824H50.5284V12.5676C50.5284 11.1906 50.2976 10.0049 49.836 9.01037C49.4128 7.97762 48.7781 7.17437 47.9318 6.60062C47.0856 6.02687 46.0662 5.74 44.8737 5.74C43.6812 5.74 42.6619 6.02687 41.8156 6.60062C40.9693 7.17437 40.3154 7.97762 39.8538 9.01037C39.4306 10.0049 39.219 11.1906 39.219 12.5676V12.6824Z" fill="white"/>
<path d="M66.6823 30.4112C66.2976 30.4112 65.9707 30.2774 65.7014 30.0096C65.4321 29.7419 65.2975 29.3976 65.2975 28.9769V2.01062C65.2975 1.58987 65.4321 1.24562 65.7014 0.977871C65.9707 0.710119 66.2976 0.576244 66.6823 0.576244H72.0485C72.4331 0.576244 72.7601 0.710119 73.0294 0.977871C73.3371 1.24562 73.491 1.58987 73.491 2.01062V3.96137C74.2603 2.89037 75.3182 1.97237 76.6645 1.20737C78.0493 0.442369 79.6842 0.040744 81.5691 0.0024945C86.0313 -0.0740045 89.0894 1.609 90.7435 5.05149C91.6282 3.55974 92.8976 2.35487 94.5517 1.43687C96.2443 0.48062 98.0907 0.0024945 100.091 0.0024945C102.091 0.0024945 103.899 0.461494 105.515 1.37949C107.13 2.25925 108.4 3.63625 109.323 5.5105C110.285 7.3465 110.766 9.71799 110.766 12.625V28.9769C110.766 29.3976 110.631 29.7419 110.362 30.0096C110.092 30.2774 109.765 30.4112 109.381 30.4112H103.668C103.284 30.4112 102.957 30.2774 102.688 30.0096C102.418 29.7419 102.284 29.3976 102.284 28.9769V13.084C102.284 11.5157 102.053 10.2917 101.591 9.41199C101.13 8.494 100.514 7.84375 99.7448 7.46125C99.0139 7.07875 98.1869 6.88749 97.2637 6.88749C96.4559 6.88749 95.6673 7.07875 94.898 7.46125C94.1671 7.84375 93.5516 8.494 93.0515 9.41199C92.5899 10.2917 92.3591 11.5157 92.3591 13.084V28.9769C92.3591 29.3976 92.2245 29.7419 91.9552 30.0096C91.6859 30.2774 91.3397 30.4112 90.9166 30.4112H85.2619C84.8388 30.4112 84.4926 30.2774 84.2233 30.0096C83.954 29.7419 83.8194 29.3976 83.8194 28.9769V13.084C83.8194 11.5157 83.5886 10.2917 83.127 9.41199C82.6654 8.494 82.0499 7.84375 81.2806 7.46125C80.5497 7.07875 79.7419 6.88749 78.8572 6.88749C78.0493 6.88749 77.2608 7.09787 76.4914 7.51862C75.7221 7.90112 75.0874 8.53224 74.5873 9.41199C74.1257 10.2917 73.8949 11.4966 73.8949 13.0266V28.9769C73.8949 29.3976 73.7603 29.7419 73.491 30.0096C73.2217 30.2774 72.8948 30.4112 72.5101 30.4112H66.6823Z" fill="white"/>
</svg>
